HIERARCHY
ROOT Hips
{
	OFFSET 0.000000 89.005402 0.000000
	CHANNELS 6 Xposition Yposition Zposition Xrotation Yrotation Zrotation
	JOINT Spine
	{
		OFFSET 0.116900 10.681000 0.373400
		CHANNELS 3 Xrotation Yrotation Zrotation
		JOINT Spine1
		{
			OFFSET 0.000000 13.840401 0.053500
			CHANNELS 3 Xrotation Yrotation Zrotation
			JOINT Spine2
			{
				OFFSET 0.000000 14.712700 -0.366200
				CHANNELS 3 Xrotation Yrotation Zrotation
				JOINT Neck
				{
					OFFSET 0.000000 35.415497 -3.314200
					CHANNELS 3 Xrotation Yrotation Zrotation
					JOINT Head
					{
						OFFSET 0.000000 16.899200 1.218300
						CHANNELS 3 Xrotation Yrotation Zrotation
						JOINT HeadTop_End
						{
							OFFSET 0.000000 22.206207 2.192500
							CHANNELS 3 Xrotation Yrotation Zrotation
							End Site
							{
								OFFSET 0.000000 22.314178 0.000000
							}
						}
					}
				}
				JOINT LeftShoulder
				{
					OFFSET 12.896400 26.716293 -4.548400
					CHANNELS 3 Xrotation Yrotation Zrotation
					JOINT LeftArm
					{
						OFFSET 19.027000 -4.857010 -1.718400
						CHANNELS 3 Xrotation Yrotation Zrotation
						JOINT LeftForeArm
						{
							OFFSET 24.179897 0.000000 0.000000
							CHANNELS 3 Xrotation Yrotation Zrotation
							JOINT LeftHand
							{
								OFFSET 27.156403 0.000000 0.000000
								CHANNELS 3 Xrotation Yrotation Zrotation
								JOINT LeftHandIndex1
								{
									OFFSET 16.441200 0.000000 0.000000
									CHANNELS 3 Xrotation Yrotation Zrotation
									JOINT LeftHandIndex2
									{
										OFFSET 4.821899 0.000000 0.000000
										CHANNELS 3 Xrotation Yrotation Zrotation
										JOINT LeftHandIndex3
										{
											OFFSET 6.386497 0.000000 0.000000
											CHANNELS 3 Xrotation Yrotation Zrotation
											JOINT LeftHandIndex4
											{
												OFFSET 5.188988 0.000000 0.000000
												CHANNELS 3 Xrotation Yrotation Zrotation
												End Site
												{
													OFFSET -0.178703 5.185913 0.000177
												}
											}
										}
									}
								}
								JOINT LeftHandThumb1
								{
									OFFSET 6.534897 -5.032593 5.900300
									CHANNELS 3 Xrotation Yrotation Zrotation
									JOINT LeftHandThumb2
									{
										OFFSET 3.818176 -2.204422 2.204423
										CHANNELS 3 Xrotation Yrotation Zrotation
										JOINT LeftHandThumb3
										{
											OFFSET 3.252098 -1.877594 1.877601
											CHANNELS 3 Xrotation Yrotation Zrotation
											JOINT LeftHandThumb4
											{
												OFFSET 5.251778 -3.032120 3.032117
												CHANNELS 3 Xrotation Yrotation Zrotation
												End Site
												{
													OFFSET 0.000023 6.780014 0.000000
												}
											}
										}
									}
								}
							}
						}
					}
				}
				JOINT RightShoulder
				{
					OFFSET -12.896300 26.716293 -4.548400
					CHANNELS 3 Xrotation Yrotation Zrotation
					JOINT RightArm
					{
						OFFSET -19.027000 -4.857010 -1.718400
						CHANNELS 3 Xrotation Yrotation Zrotation
						JOINT RightForeArm
						{
							OFFSET -24.179897 0.000000 0.000000
							CHANNELS 3 Xrotation Yrotation Zrotation
							JOINT RightHand
							{
								OFFSET -27.156403 0.000000 0.000000
								CHANNELS 3 Xrotation Yrotation Zrotation
								JOINT RightHandThumb1
								{
									OFFSET -6.591202 -4.852203 5.988100
									CHANNELS 3 Xrotation Yrotation Zrotation
									JOINT RightHandThumb2
									{
										OFFSET -3.818176 -2.204422 2.204423
										CHANNELS 3 Xrotation Yrotation Zrotation
										JOINT RightHandThumb3
										{
											OFFSET -3.252098 -1.877594 1.877601
											CHANNELS 3 Xrotation Yrotation Zrotation
											JOINT RightHandThumb4
											{
												OFFSET -5.251778 -3.032120 3.032117
												CHANNELS 3 Xrotation Yrotation Zrotation
												End Site
												{
													OFFSET -0.000023 6.780014 0.000000
												}
											}
										}
									}
								}
								JOINT RightHandIndex1
								{
									OFFSET -16.029404 0.000000 0.000000
									CHANNELS 3 Xrotation Yrotation Zrotation
									JOINT RightHandIndex2
									{
										OFFSET -5.213303 0.000000 0.000000
										CHANNELS 3 Xrotation Yrotation Zrotation
										JOINT RightHandIndex3
										{
											OFFSET -6.386528 0.000000 0.000000
											CHANNELS 3 Xrotation Yrotation Zrotation
											JOINT RightHandIndex4
											{
												OFFSET -5.189026 0.000000 0.000000
												CHANNELS 3 Xrotation Yrotation Zrotation
												End Site
												{
													OFFSET 0.236702 5.183624 0.001972
												}
											}
										}
									}
								}
							}
						}
					}
				}
			}
		}
	}
	JOINT LeftUpLeg
	{
		OFFSET 14.073000 -7.904099 -1.463000
		CHANNELS 3 Xrotation Yrotation Zrotation
		JOINT LeftLeg
		{
			OFFSET -0.109806 -34.073280 4.093200
			CHANNELS 3 Xrotation Yrotation Zrotation
			JOINT LeftFoot
			{
				OFFSET 0.109806 -29.899420 -6.319000
				CHANNELS 3 Xrotation Yrotation Zrotation
				JOINT LeftToeBase
				{
					OFFSET 1.551100 -14.988700 20.535801
					CHANNELS 3 Xrotation Yrotation Zrotation
					JOINT LeftToe_End
					{
						OFFSET 0.221200 0.570800 13.248301
						CHANNELS 3 Xrotation Yrotation Zrotation
						End Site
						{
							OFFSET 0.000000 13.262435 0.000000
						}
					}
				}
			}
		}
	}
	JOINT RightUpLeg
	{
		OFFSET -13.839300 -7.904099 -1.463000
		CHANNELS 3 Xrotation Yrotation Zrotation
		JOINT RightLeg
		{
			OFFSET 0.109694 -34.073219 4.093300
			CHANNELS 3 Xrotation Yrotation Zrotation
			JOINT RightFoot
			{
				OFFSET -0.109694 -29.899384 -6.319200
				CHANNELS 3 Xrotation Yrotation Zrotation
				JOINT RightToeBase
				{
					OFFSET -1.551100 -14.988700 20.535801
					CHANNELS 3 Xrotation Yrotation Zrotation
					JOINT RightToe_End
					{
						OFFSET -0.221200 0.570900 13.248299
						CHANNELS 3 Xrotation Yrotation Zrotation
						End Site
						{
							OFFSET 0.000000 13.262440 0.000000
						}
					}
				}
			}
		}
	}
}
MOTION
Frames: 8
Frame Time: 0.033333
2.652698 84.060867 1.071040 -3.069135 -1.274795 4.250589 0.908598 -0.540523 -1.879784 0.527706 -0.396794 -0.217356 0.524039 -0.405311 -0.213280 -1.984556 0.176477 -1.900447 -7.959237 -0.555146 -3.920854 0.000001 0.000000 0.000000 2.261519 -12.701196 -11.089191 6.635595 -21.942106 -53.938274 -0.000010 -17.896289 -0.000009 -22.314663 1.779917 24.379670 0.754849 3.139478 -27.032774 0.053440 0.857994 -7.128500 0.013370 0.429817 -3.564074 -0.000002 0.000001 -0.000000 -7.867506 31.599775 22.451901 8.213144 11.702295 -0.982448 1.536448 3.472091 1.990675 -0.000002 -0.000002 0.000001 0.918487 0.293268 11.488254 23.420225 25.516624 55.437845 0.000001 24.445199 0.000001 -23.010716 -2.527734 -7.746303 -0.808093 -27.255831 -20.525883 -5.621017 -12.082477 -5.833175 -6.218130 -1.823486 -4.198791 -0.000000 -0.000001 -0.000001 0.147274 -1.426358 11.789607 0.283897 -1.970284 16.396702 0.071309 -0.995313 8.195918 0.000001 -0.000000 0.000002 -9.602224 -1.319587 -7.013536 24.696960 -1.092247 -4.784914 -12.054761 -1.079447 7.226833 -0.001787 -0.000001 0.000000 -0.000000 0.000000 -0.000000 -31.259187 -6.632194 -5.449576 60.702972 -2.216627 0.687332 3.172514 -0.218094 -4.430550 -31.050047 -0.200708 0.846787 -0.000000 -0.000001 -0.000000 
2.515138 84.690140 4.434424 -2.602937 -0.493867 3.906537 0.753350 -1.278058 -1.827088 0.424984 -0.956811 -0.252419 0.412010 -0.965677 -0.243078 -1.866220 0.174939 -1.857011 -8.080558 -0.476824 -3.935018 0.000001 -0.000000 -0.000000 2.225932 -12.615352 -10.986783 6.537176 -21.919195 -51.975561 -0.000002 -21.679956 -0.000014 -21.105865 3.955454 21.282176 0.754848 3.139475 -27.032772 0.053440 0.857992 -7.128503 0.013372 0.429819 -3.564074 -0.000002 0.000001 0.000000 -7.867508 31.599771 22.451902 8.213145 11.702295 -0.982447 1.536447 3.472088 1.990673 -0.000000 -0.000001 0.000001 0.929167 0.536043 11.433231 23.062810 22.897854 56.396278 0.000006 25.049826 -0.000009 -20.920101 -2.848747 -7.445688 -0.808093 -27.255829 -20.525883 -5.621014 -12.082474 -5.833177 -6.218129 -1.823484 -4.198796 0.000001 -0.000002 0.000004 0.147274 -1.426357 11.789604 0.283896 -1.970285 16.396697 0.071308 -0.995312 8.195919 0.000001 -0.000001 -0.000001 -5.720449 -1.573844 -7.394290 22.068118 -1.997175 -3.495638 -13.660470 -1.286191 7.987893 -0.005076 0.000000 -0.000003 -0.000000 0.000000 0.000000 -31.528409 -7.510777 -3.859986 48.755137 -5.089291 0.825640 -0.471706 0.605698 -9.230976 -13.827309 -0.054864 2.121221 0.000000 0.000000 -0.000000 
2.316333 84.872910 7.747584 -2.047984 0.229910 3.835376 0.413489 -1.887911 -2.154565 0.114364 -1.366112 -0.389489 0.090548 -1.373590 -0.371547 -1.932202 0.178250 -1.741088 -8.308038 -0.366900 -3.702883 -0.000000 -0.000000 -0.000000 2.193050 -12.497052 -10.910718 7.096581 -21.404816 -49.853482 0.000014 -26.564976 0.000013 -20.196752 6.719786 19.266024 0.754847 3.139483 -27.032772 0.053440 0.857992 -7.128504 0.013369 0.429819 -3.564073 0.000000 -0.000002 0.000001 -7.867512 31.599775 22.451904 8.213145 11.702295 -0.982445 1.536447 3.472090 1.990678 -0.000001 -0.000001 0.000001 0.940299 0.666792 11.478811 23.043144 20.709429 57.137691 -0.000005 25.802044 0.000039 -17.626191 -2.973445 -6.466651 -0.808093 -27.255831 -20.525881 -5.621014 -12.082476 -5.833174 -6.218130 -1.823484 -4.198791 0.000001 0.000000 -0.000001 0.147275 -1.426357 11.789605 0.283896 -1.970287 16.396699 0.071311 -0.995313 8.195917 0.000000 -0.000001 -0.000001 -1.888616 -1.184000 -7.488515 19.292981 -3.503895 -2.419312 -15.103679 -1.285656 7.379166 -0.006037 -0.000001 0.000001 0.000000 -0.000000 -0.000000 -29.703021 -7.570964 -2.904497 30.707427 -6.605330 1.324009 3.325589 0.548817 -12.475746 -1.586186 -0.065192 2.353097 -0.000000 -0.000000 -0.000000 
2.033040 84.529236 11.137261 -1.860186 0.800895 3.936742 0.021577 -2.349474 -2.583767 -0.286785 -1.583081 -0.660680 -0.319665 -1.591069 -0.629838 -1.960508 0.152491 -1.600938 -8.643779 -0.396553 -3.336398 -0.000000 -0.000000 0.000000 2.177653 -12.405528 -10.892840 7.892150 -20.297758 -48.102178 -0.000002 -31.412692 -0.000002 -19.349525 8.424892 18.490794 0.754846 3.139476 -27.032774 0.053441 0.857996 -7.128502 0.013370 0.429818 -3.564073 0.000001 0.000001 -0.000001 -7.867510 31.599775 22.451904 8.213144 11.702293 -0.982447 1.536448 3.472089 1.990676 0.000001 0.000000 0.000002 0.946687 0.698699 11.540918 24.047339 20.043434 57.505391 -0.000001 26.084533 0.000014 -17.051149 -2.958419 -5.915500 -0.808093 -27.255831 -20.525883 -5.621015 -12.082476 -5.833174 -6.218133 -1.823482 -4.198796 0.000001 -0.000001 -0.000001 0.147273 -1.426358 11.789605 0.283896 -1.970286 16.396701 0.071307 -0.995313 8.195923 -0.000001 -0.000001 -0.000001 1.965855 -0.043377 -7.249141 17.795320 -5.524870 -1.992535 -17.420800 -1.290447 6.923747 -0.007652 0.000002 0.000000 0.000000 0.000000 0.000000 -30.464194 -7.687621 -4.129681 19.716893 -4.973917 1.587193 2.664937 -0.625125 -7.187817 0.000000 0.000006 0.000001 0.000000 -0.000001 0.000000 
1.585447 83.389801 14.956947 -2.092151 1.364360 4.937369 -0.430430 -2.825066 -3.785655 -0.763602 -1.681104 -1.122340 -0.805136 -1.699430 -1.075138 -1.946755 0.118775 -1.457874 -8.954803 -0.410665 -3.159992 0.000001 -0.000000 -0.000000 2.176157 -12.421362 -10.878616 8.241629 -18.820574 -47.086061 -0.000002 -34.834245 0.000005 -18.483762 8.070482 18.688151 0.754843 3.139481 -27.032769 0.053439 0.857992 -7.128503 0.013370 0.429821 -3.564074 -0.000005 -0.000002 -0.000000 -7.867511 31.599771 22.451899 8.213145 11.702294 -0.982450 1.536449 3.472090 1.990678 -0.000000 -0.000000 -0.000001 0.954367 0.690703 11.654610 25.605529 19.960835 57.811295 -0.000002 26.390072 0.000016 -18.211467 -3.438489 -5.650684 -0.808095 -27.255831 -20.525881 -5.621014 -12.082475 -5.833180 -6.218129 -1.823482 -4.198794 0.000001 0.000001 0.000002 0.147273 -1.426359 11.789604 0.283896 -1.970286 16.396699 0.071309 -0.995313 8.195926 -0.000000 -0.000001 0.000000 5.866438 0.717492 -7.531480 18.129253 -7.305692 -2.430815 -21.250115 -1.565340 7.542329 -0.005060 -0.000001 0.000002 -0.000000 0.000000 -0.000000 -36.788502 -8.479710 -4.918435 22.319262 -2.965741 0.097943 -5.754158 0.216405 -7.547932 0.000001 0.000001 0.000001 0.000001 0.000001 -0.000001 
1.125379 82.353233 18.758186 -2.193047 1.845749 5.556627 -0.671617 -3.153454 -4.284108 -1.025744 -1.809380 -1.482943 -1.074057 -1.840949 -1.423259 -2.075321 0.109872 -1.385013 -9.274964 -0.322627 -3.299686 0.000000 -0.000000 -0.000001 2.163873 -12.362326 -10.856984 7.623229 -17.504764 -46.866911 -0.000008 -36.083821 -0.000004 -17.770013 6.210762 19.174318 0.754846 3.139482 -27.032774 0.053438 0.857991 -7.128504 0.013368 0.429820 -3.564075 -0.000002 0.000001 -0.000000 -7.867506 31.599775 22.451901 8.213144 11.702294 -0.982451 1.536448 3.472090 1.990672 -0.000001 -0.000000 -0.000001 0.962391 0.673051 11.781449 25.654594 19.644370 58.175781 0.000001 24.740689 -0.000005 -18.037479 -2.721752 -5.134660 -0.808093 -27.255829 -20.525885 -5.621016 -12.082477 -5.833175 -6.218130 -1.823484 -4.198789 0.000001 0.000002 0.000002 0.147273 -1.426358 11.789606 0.283896 -1.970286 16.396701 0.071310 -0.995313 8.195920 0.000000 0.000000 0.000002 9.778692 0.774518 -7.386022 17.906572 -8.247651 -3.283198 -24.753633 -2.276078 9.297748 -0.006447 0.000002 -0.000002 -0.000000 0.000000 -0.000000 -40.105570 -8.963525 -5.342992 23.047515 -0.819066 -0.749779 -12.690295 0.412347 -7.811400 0.000005 0.000001 0.000000 0.000001 -0.000000 -0.000001 
0.744774 81.570511 22.339983 -2.222547 2.127667 5.717340 -0.614432 -3.307927 -4.197678 -1.002245 -1.941936 -1.558136 -1.055073 -1.980541 -1.491572 -2.368224 0.153503 -1.506295 -9.830974 -0.183922 -3.596966 0.000002 0.000000 0.000000 2.136652 -11.962316 -10.944652 6.637415 -17.110944 -47.392733 0.000000 -35.482102 -0.000000 -17.602055 4.206279 19.371882 0.754846 3.139476 -27.032770 0.053442 0.857992 -7.128505 0.013372 0.429819 -3.564073 -0.000001 0.000000 -0.000001 -7.867509 31.599771 22.451906 8.213145 11.702295 -0.982449 1.536448 3.472090 1.990683 -0.000000 -0.000000 -0.000003 0.960284 0.677673 11.748134 24.494638 18.886219 58.528676 -0.000002 22.661687 -0.000002 -16.568316 -1.069046 -4.791213 -0.808092 -27.255829 -20.525881 -5.621016 -12.082476 -5.833171 -6.218130 -1.823482 -4.198787 0.000000 0.000001 0.000001 0.147273 -1.426357 11.789606 0.283897 -1.970285 16.396699 0.071310 -0.995312 8.195925 0.000001 -0.000000 -0.000001 13.579369 1.031736 -7.405057 17.507798 -8.450284 -3.651234 -27.881648 -3.761015 12.691308 -1.092421 0.000002 -0.000004 -0.000000 0.000001 -0.000000 -41.694190 -7.847612 -5.375699 24.086785 -1.253124 -0.467639 -14.337636 0.544816 -7.964626 0.000007 -0.000000 -0.000001 -0.000000 -0.000001 -0.000001 
0.401217 81.169685 26.123795 -2.471601 1.984114 5.505489 -0.353786 -3.169833 -3.806743 -0.775387 -1.961357 -1.350611 -0.827798 -1.997671 -1.286106 -2.605731 0.227943 -1.686804 -10.468908 0.088842 -4.052843 0.000002 -0.000000 -0.000000 2.127850 -11.599338 -11.094779 5.943251 -17.402880 -48.707763 0.000004 -33.488605 0.000002 -17.928056 2.784715 18.847094 0.754849 3.139479 -27.032769 0.053440 0.857994 -7.128502 0.013370 0.429816 -3.564074 -0.000000 -0.000001 0.000001 -7.867509 31.599771 22.451904 8.213145 11.702294 -0.982453 1.536448 3.472090 1.990678 -0.000001 -0.000000 -0.000001 0.938710 0.629379 11.488102 23.388933 18.249101 58.841581 -0.000002 21.115149 0.000007 -15.822669 -0.049500 -4.954525 -0.808093 -27.255831 -20.525883 -5.621016 -12.082476 -5.833171 -6.218130 -1.823486 -4.198794 0.000000 0.000000 0.000001 0.147274 -1.426358 11.789606 0.283897 -1.970286 16.396701 0.071310 -0.995312 8.195920 0.000000 -0.000001 -0.000004 16.581092 1.785979 -6.990289 18.534640 -8.813078 -3.188263 -28.991831 -4.419375 13.270578 -6.250937 0.000002 0.000001 -0.000000 0.000000 -0.000001 -41.950189 -5.820472 -5.116798 25.022080 -2.383692 0.370119 -7.140659 0.762945 -6.750365 0.000003 0.000001 0.000001 -0.000001 0.000001 -0.000000 
